<?xml version="1.0" standalone="no"?>
<!DOCTYPE svg PUBLIC "-//W3C//DTD SVG 1.1//EN" "http://www.w3.org/Graphics/SVG/1.1/DTD/svg11.dtd">
<svg xmlns="http://www.w3.org/2000/svg" width="452" height="452" viewBox="0 0 452 452"><line x1="1" y1="1" x2="451" y2="1" stroke="black"/><line x1="1" y1="1" x2="1" y2="451" stroke="black"/><line x1="31" y1="1" x2="31" y2="31" stroke="black"/><line x1="91" y1="1" x2="91" y2="31" stroke="black"/><line x1="151" y1="31" x2="181" y2="31" stroke="black"/><line x1="211" y1="1" x2="211" y2="31" stroke="black"/><line x1="211" y1="31" x2="241" y2="31" stroke="black"/><line x1="241" y1="31" x2="271" y2="31" stroke="black"/><line x1="271" y1="31" x2="301" y2="31" stroke="black"/><line x1="331" y1="1" x2="331" y2="31" stroke="black"/><line x1="331" y1="31" x2="361" y2="31" stroke="black"/><line x1="391" y1="31" x2="421" y2="31" stroke="black"/><line x1="451" y1="1" x2="451" y2="31" stroke="black"/><line x1="421" y1="31" x2="451" y2="31" stroke="black"/><line x1="31" y1="31" x2="31" y2="61" stroke="black"/><line x1="61" y1="31" x2="61" y2="61" stroke="black"/><line x1="91" y1="31" x2="91" y2="61" stroke="black"/><line x1="61" y1="61" x2="91" y2="61" stroke="black"/><line x1="121" y1="31" x2="121" y2="61" stroke="black"/><line x1="151" y1="31" x2="151" y2="61" stroke="black"/><line x1="181" y1="31" x2="181" y2="61" stroke="black"/><line x1="211" y1="31" x2="211" y2="61" stroke="black"/><line x1="181" y1="61" x2="211" y2="61" stroke="black"/><line x1="241" y1="31" x2="241" y2="61" stroke="black"/><line x1="271" y1="31" x2="271" y2="61" stroke="black"/><line x1="271" y1="61" x2="301" y2="61" stroke="black"/><line x1="361" y1="31" x2="361" y2="61" stroke="black"/><line x1="391" y1="61" x2="421" y2="61" stroke="black"/><line x1="451" y1="31" x2="451" y2="61" stroke="black"/><line x1="421" y1="61" x2="451" y2="61" stroke="black"/><line x1="31" y1="61" x2="31" y2="91" stroke="black"/><line x1="31" y1="91" x2="61" y2="91" stroke="black"/><line x1="91" y1="61" x2="91" y2="91" stroke="black"/><line x1="121" y1="61" x2="121" y2="91" stroke="black"/><line x1="151" y1="91" x2="181" y2="91" stroke="black"/><line x1="181" y1="91" x2="211" y2="91" stroke="black"/><line x1="211" y1="91" x2="241" y2="91" stroke="black"/><line x1="241" y1="91" x2="271" y2="91" stroke="black"/><line x1="301" y1="61" x2="301" y2="91" stroke="black"/><line x1="331" y1="61" x2="331" y2="91" stroke="black"/><line x1="361" y1="61" x2="361" y2="91" stroke="black"/><line x1="331" y1="91" x2="361" y2="91" stroke="black"/><line x1="361" y1="91" x2="391" y2="91" stroke="black"/><line x1="451" y1="61" x2="451" y2="91" stroke="black"/><line x1="61" y1="91" x2="61" y2="121" stroke="black"/><line x1="31" y1="121" x2="61" y2="121" stroke="black"/><line x1="91" y1="91" x2="91" y2="121" stroke="black"/><line x1="121" y1="91" x2="121" y2="121" stroke="black"/><line x1="151" y1="91" x2="151" y2="121" stroke="black"/><line x1="121" y1="121" x2="151" y2="121" stroke="black"/><line x1="151" y1="121" x2="181" y2="121" stroke="black"/><line x1="181" y1="121" x2="211" y2="121" stroke="black"/><line x1="211" y1="121" x2="241" y2="121" stroke="black"/><line x1="301" y1="91" x2="301" y2="121" stroke="black"/><line x1="271" y1="121" x2="301" y2="121" stroke="black"/><line x1="331" y1="91" x2="331" y2="121" stroke="black"/><line x1="361" y1="91" x2="361" y2="121" stroke="black"/><line x1="421" y1="91" x2="421" y2="121" stroke="black"/><line x1="391" y1="121" x2="421" y2="121" stroke="black"/><line x1="451" y1="91" x2="451" y2="121" stroke="black"/><line x1="31" y1="121" x2="31" y2="151" stroke="black"/><line x1="31" y1="151" x2="61" y2="151" stroke="black"/><line x1="121" y1="121" x2="121" y2="151" stroke="black"/><line x1="91" y1="151" x2="121" y2="151" stroke="black"/><line x1="151" y1="121" x2="151" y2="151" stroke="black"/><line x1="181" y1="121" x2="181" y2="151" stroke="black"/><line x1="211" y1="121" x2="211" y2="151" stroke="black"/><line x1="271" y1="121" x2="271" y2="151" stroke="black"/><line x1="241" y1="151" x2="271" y2="151" stroke="black"/><line x1="271" y1="151" x2="301" y2="151" stroke="black"/><line x1="331" y1="151" x2="361" y2="151" stroke="black"/><line x1="361" y1="151" x2="391" y2="151" stroke="black"/><line x1="421" y1="121" x2="421" y2="151" stroke="black"/><line x1="391" y1="151" x2="421" y2="151" stroke="black"/><line x1="451" y1="121" x2="451" y2="151" stroke="black"/><line x1="1" y1="181" x2="31" y2="181" stroke="black"/><line x1="31" y1="181" x2="61" y2="181" stroke="black"/><line x1="91" y1="151" x2="91" y2="181" stroke="black"/><line x1="61" y1="181" x2="91" y2="181" stroke="black"/><line x1="121" y1="151" x2="121" y2="181" stroke="black"/><line x1="121" y1="181" x2="151" y2="181" stroke="black"/><line x1="181" y1="181" x2="211" y2="181" stroke="black"/><line x1="241" y1="151" x2="241" y2="181" stroke="black"/><line x1="301" y1="151" x2="301" y2="181" stroke="black"/><line x1="331" y1="151" x2="331" y2="181" stroke="black"/><line x1="301" y1="181" x2="331" y2="181" stroke="black"/><line x1="331" y1="181" x2="361" y2="181" stroke="black"/><line x1="391" y1="181" x2="421" y2="181" stroke="black"/><line x1="451" y1="151" x2="451" y2="181" stroke="black"/><line x1="421" y1="181" x2="451" y2="181" stroke="black"/><line x1="1" y1="211" x2="31" y2="211" stroke="black"/><line x1="31" y1="211" x2="61" y2="211" stroke="black"/><line x1="61" y1="211" x2="91" y2="211" stroke="black"/><line x1="121" y1="211" x2="151" y2="211" stroke="black"/><line x1="181" y1="181" x2="181" y2="211" stroke="black"/><line x1="151" y1="211" x2="181" y2="211" stroke="black"/><line x1="211" y1="181" x2="211" y2="211" stroke="black"/><line x1="211" y1="211" x2="241" y2="211" stroke="black"/><line x1="271" y1="181" x2="271" y2="211" stroke="black"/><line x1="301" y1="181" x2="301" y2="211" stroke="black"/><line x1="271" y1="211" x2="301" y2="211" stroke="black"/><line x1="301" y1="211" x2="331" y2="211" stroke="black"/><line x1="391" y1="181" x2="391" y2="211" stroke="black"/><line x1="361" y1="211" x2="391" y2="211" stroke="black"/><line x1="391" y1="211" x2="421" y2="211" stroke="black"/><line x1="451" y1="181" x2="451" y2="211" stroke="black"/><line x1="31" y1="211" x2="31" y2="241" stroke="black"/><line x1="31" y1="241" x2="61" y2="241" stroke="black"/><line x1="61" y1="241" x2="91" y2="241" stroke="black"/><line x1="91" y1="241" x2="121" y2="241" stroke="black"/><line x1="151" y1="241" x2="181" y2="241" stroke="black"/><line x1="211" y1="211" x2="211" y2="241" stroke="black"/><line x1="241" y1="211" x2="241" y2="241" stroke="black"/><line x1="241" y1="241" x2="271" y2="241" stroke="black"/><line x1="361" y1="211" x2="361" y2="241" stroke="black"/><line x1="331" y1="241" x2="361" y2="241" stroke="black"/><line x1="361" y1="241" x2="391" y2="241" stroke="black"/><line x1="451" y1="211" x2="451" y2="241" stroke="black"/><line x1="61" y1="241" x2="61" y2="271" stroke="black"/><line x1="61" y1="271" x2="91" y2="271" stroke="black"/><line x1="121" y1="241" x2="121" y2="271" stroke="black"/><line x1="151" y1="241" x2="151" y2="271" stroke="black"/><line x1="121" y1="271" x2="151" y2="271" stroke="black"/><line x1="211" y1="241" x2="211" y2="271" stroke="black"/><line x1="181" y1="271" x2="211" y2="271" stroke="black"/><line x1="211" y1="271" x2="241" y2="271" stroke="black"/><line x1="241" y1="271" x2="271" y2="271" stroke="black"/><line x1="301" y1="241" x2="301" y2="271" stroke="black"/><line x1="331" y1="241" x2="331" y2="271" stroke="black"/><line x1="331" y1="271" x2="361" y2="271" stroke="black"/><line x1="391" y1="241" x2="391" y2="271" stroke="black"/><line x1="421" y1="241" x2="421" y2="271" stroke="black"/><line x1="451" y1="241" x2="451" y2="271" stroke="black"/><line x1="31" y1="271" x2="31" y2="301" stroke="black"/><line x1="61" y1="271" x2="61" y2="301" stroke="black"/><line x1="31" y1="301" x2="61" y2="301" stroke="black"/><line x1="91" y1="271" x2="91" y2="301" stroke="black"/><line x1="151" y1="271" x2="151" y2="301" stroke="black"/><line x1="121" y1="301" x2="151" y2="301" stroke="black"/><line x1="181" y1="271" x2="181" y2="301" stroke="black"/><line x1="241" y1="271" x2="241" y2="301" stroke="black"/><line x1="211" y1="301" x2="241" y2="301" stroke="black"/><line x1="241" y1="301" x2="271" y2="301" stroke="black"/><line x1="301" y1="271" x2="301" y2="301" stroke="black"/><line x1="301" y1="301" x2="331" y2="301" stroke="black"/><line x1="331" y1="301" x2="361" y2="301" stroke="black"/><line x1="391" y1="271" x2="391" y2="301" stroke="black"/><line x1="361" y1="301" x2="391" y2="301" stroke="black"/><line x1="421" y1="271" x2="421" y2="301" stroke="black"/><line x1="391" y1="301" x2="421" y2="301" stroke="black"/><line x1="451" y1="271" x2="451" y2="301" stroke="black"/><line x1="61" y1="301" x2="61" y2="331" stroke="black"/><line x1="31" y1="331" x2="61" y2="331" stroke="black"/><line x1="91" y1="331" x2="121" y2="331" stroke="black"/><line x1="151" y1="301" x2="151" y2="331" stroke="black"/><line x1="121" y1="331" x2="151" y2="331" stroke="black"/><line x1="151" y1="331" x2="181" y2="331" stroke="black"/><line x1="211" y1="331" x2="241" y2="331" stroke="black"/><line x1="271" y1="301" x2="271" y2="331" stroke="black"/><line x1="241" y1="331" x2="271" y2="331" stroke="black"/><line x1="301" y1="301" x2="301" y2="331" stroke="black"/><line x1="331" y1="301" x2="331" y2="331" stroke="black"/><line x1="331" y1="331" x2="361" y2="331" stroke="black"/><line x1="391" y1="331" x2="421" y2="331" stroke="black"/><line x1="451" y1="301" x2="451" y2="331" stroke="black"/><line x1="421" y1="331" x2="451" y2="331" stroke="black"/><line x1="1" y1="361" x2="31" y2="361" stroke="black"/><line x1="61" y1="331" x2="61" y2="361" stroke="black"/><line x1="91" y1="361" x2="121" y2="361" stroke="black"/><line x1="151" y1="361" x2="181" y2="361" stroke="black"/><line x1="181" y1="361" x2="211" y2="361" stroke="black"/><line x1="241" y1="331" x2="241" y2="361" stroke="black"/><line x1="211" y1="361" x2="241" y2="361" stroke="black"/><line x1="271" y1="331" x2="271" y2="361" stroke="black"/><line x1="271" y1="361" x2="301" y2="361" stroke="black"/><line x1="361" y1="361" x2="391" y2="361" stroke="black"/><line x1="421" y1="331" x2="421" y2="361" stroke="black"/><line x1="451" y1="331" x2="451" y2="361" stroke="black"/><line x1="31" y1="391" x2="61" y2="391" stroke="black"/><line x1="91" y1="361" x2="91" y2="391" stroke="black"/><line x1="91" y1="391" x2="121" y2="391" stroke="black"/><line x1="151" y1="391" x2="181" y2="391" stroke="black"/><line x1="211" y1="361" x2="211" y2="391" stroke="black"/><line x1="181" y1="391" x2="211" y2="391" stroke="black"/><line x1="241" y1="361" x2="241" y2="391" stroke="black"/><line x1="271" y1="391" x2="301" y2="391" stroke="black"/><line x1="331" y1="361" x2="331" y2="391" stroke="black"/><line x1="301" y1="391" x2="331" y2="391" stroke="black"/><line x1="361" y1="361" x2="361" y2="391" stroke="black"/><line x1="331" y1="391" x2="361" y2="391" stroke="black"/><line x1="391" y1="361" x2="391" y2="391" stroke="black"/><line x1="451" y1="361" x2="451" y2="391" stroke="black"/><line x1="31" y1="391" x2="31" y2="421" stroke="black"/><line x1="61" y1="421" x2="91" y2="421" stroke="black"/><line x1="121" y1="391" x2="121" y2="421" stroke="black"/><line x1="151" y1="391" x2="151" y2="421" stroke="black"/><line x1="151" y1="421" x2="181" y2="421" stroke="black"/><line x1="181" y1="421" x2="211" y2="421" stroke="black"/><line x1="211" y1="421" x2="241" y2="421" stroke="black"/><line x1="271" y1="391" x2="271" y2="421" stroke="black"/><line x1="331" y1="391" x2="331" y2="421" stroke="black"/><line x1="331" y1="421" x2="361" y2="421" stroke="black"/><line x1="421" y1="391" x2="421" y2="421" stroke="black"/><line x1="391" y1="421" x2="421" y2="421" stroke="black"/><line x1="451" y1="391" x2="451" y2="421" stroke="black"/><line x1="31" y1="421" x2="31" y2="451" stroke="black"/><line x1="1" y1="451" x2="31" y2="451" stroke="black"/><line x1="61" y1="421" x2="61" y2="451" stroke="black"/><line x1="31" y1="451" x2="61" y2="451" stroke="black"/><line x1="61" y1="451" x2="91" y2="451" stroke="black"/><line x1="121" y1="421" x2="121" y2="451" stroke="black"/><line x1="91" y1="451" x2="121" y2="451" stroke="black"/><line x1="151" y1="421" x2="151" y2="451" stroke="black"/><line x1="121" y1="451" x2="151" y2="451" stroke="black"/><line x1="151" y1="451" x2="181" y2="451" stroke="black"/><line x1="181" y1="451" x2="211" y2="451" stroke="black"/><line x1="211" y1="451" x2="241" y2="451" stroke="black"/><line x1="271" y1="421" x2="271" y2="451" stroke="black"/><line x1="241" y1="451" x2="271" y2="451" stroke="black"/><line x1="301" y1="421" x2="301" y2="451" stroke="black"/><line x1="271" y1="451" x2="301" y2="451" stroke="black"/><line x1="301" y1="451" x2="331" y2="451" stroke="black"/><line x1="331" y1="451" x2="361" y2="451" stroke="black"/><line x1="361" y1="451" x2="391" y2="451" stroke="black"/><line x1="421" y1="421" x2="421" y2="451" stroke="black"/><line x1="391" y1="451" x2="421" y2="451" stroke="black"/><line x1="451" y1="421" x2="451" y2="451" stroke="black"/><line x1="421" y1="451" x2="451" y2="451" stroke="black"/><line x1="226" y1="16" x2="256" y2="16" stroke="aqua" stroke-width="1"/><line x1="256" y1="16" x2="286" y2="16" stroke="aqua" stroke-width="1"/><line x1="286" y1="16" x2="316" y2="16" stroke="aqua" stroke-width="1"/><line x1="316" y1="16" x2="316" y2="46" stroke="aqua" stroke-width="1"/><line x1="316" y1="46" x2="316" y2="76" stroke="aqua" stroke-width="1"/><line x1="316" y1="76" x2="316" y2="106" stroke="aqua" stroke-width="1"/><line x1="316" y1="106" x2="316" y2="136" stroke="aqua" stroke-width="1"/><line x1="316" y1="136" x2="346" y2="136" stroke="aqua" stroke-width="1"/><line x1="346" y1="136" x2="376" y2="136" stroke="aqua" stroke-width="1"/><line x1="376" y1="136" x2="376" y2="106" stroke="aqua" stroke-width="1"/><line x1="376" y1="106" x2="406" y2="106" stroke="aqua" stroke-width="1"/><line x1="406" y1="106" x2="406" y2="76" stroke="aqua" stroke-width="1"/><line x1="406" y1="76" x2="436" y2="76" stroke="aqua" stroke-width="1"/><line x1="436" y1="76" x2="436" y2="106" stroke="aqua" stroke-width="1"/><line x1="436" y1="106" x2="436" y2="136" stroke="aqua" stroke-width="1"/><line x1="436" y1="136" x2="436" y2="166" stroke="aqua" stroke-width="1"/><line x1="436" y1="166" x2="406" y2="166" stroke="aqua" stroke-width="1"/><line x1="406" y1="166" x2="376" y2="166" stroke="aqua" stroke-width="1"/><line x1="376" y1="166" x2="376" y2="196" stroke="aqua" stroke-width="1"/><line x1="376" y1="196" x2="346" y2="196" stroke="aqua" stroke-width="1"/><line x1="346" y1="196" x2="346" y2="226" stroke="aqua" stroke-width="1"/><line x1="346" y1="226" x2="316" y2="226" stroke="aqua" stroke-width="1"/><line x1="316" y1="226" x2="286" y2="226" stroke="aqua" stroke-width="1"/><line x1="286" y1="226" x2="256" y2="226" stroke="aqua" stroke-width="1"/><line x1="256" y1="226" x2="256" y2="196" stroke="aqua" stroke-width="1"/><line x1="256" y1="196" x2="226" y2="196" stroke="aqua" stroke-width="1"/><line x1="226" y1="196" x2="226" y2="166" stroke="aqua" stroke-width="1"/><line x1="226" y1="166" x2="196" y2="166" stroke="aqua" stroke-width="1"/><line x1="196" y1="166" x2="166" y2="166" stroke="aqua" stroke-width="1"/><line x1="166" y1="166" x2="166" y2="196" stroke="aqua" stroke-width="1"/><line x1="166" y1="196" x2="136" y2="196" stroke="aqua" stroke-width="1"/><line x1="136" y1="196" x2="106" y2="196" stroke="aqua" stroke-width="1"/><line x1="106" y1="196" x2="106" y2="226" stroke="aqua" stroke-width="1"/><line x1="106" y1="226" x2="136" y2="226" stroke="aqua" stroke-width="1"/><line x1="136" y1="226" x2="166" y2="226" stroke="aqua" stroke-width="1"/><line x1="166" y1="226" x2="196" y2="226" stroke="aqua" stroke-width="1"/><line x1="196" y1="226" x2="196" y2="256" stroke="aqua" stroke-width="1"/><line x1="196" y1="256" x2="166" y2="256" stroke="aqua" stroke-width="1"/><line x1="166" y1="256" x2="166" y2="286" stroke="aqua" stroke-width="1"/><line x1="166" y1="286" x2="166" y2="316" stroke="aqua" stroke-width="1"/><line x1="166" y1="316" x2="196" y2="316" stroke="aqua" stroke-width="1"/><line x1="196" y1="316" x2="196" y2="346" stroke="aqua" stroke-width="1"/><line x1="196" y1="346" x2="166" y2="346" stroke="aqua" stroke-width="1"/><line x1="166" y1="346" x2="136" y2="346" stroke="aqua" stroke-width="1"/><line x1="136" y1="346" x2="106" y2="346" stroke="aqua" stroke-width="1"/><line x1="106" y1="346" x2="76" y2="346" stroke="aqua" stroke-width="1"/><line x1="76" y1="346" x2="76" y2="376" stroke="aqua" stroke-width="1"/><line x1="76" y1="376" x2="46" y2="376" stroke="aqua" stroke-width="1"/><line x1="46" y1="376" x2="46" y2="346" stroke="aqua" stroke-width="1"/><line x1="46" y1="346" x2="16" y2="346" stroke="aqua" stroke-width="1"/><line x1="16" y1="346" x2="16" y2="316" stroke="aqua" stroke-width="1"/><line x1="16" y1="316" x2="16" y2="286" stroke="aqua" stroke-width="1"/><line x1="16" y1="286" x2="16" y2="256" stroke="aqua" stroke-width="1"/><line x1="16" y1="256" x2="46" y2="256" stroke="aqua" stroke-width="1"/><line x1="46" y1="256" x2="46" y2="286" stroke="aqua" stroke-width="1"/><circle cx="226" cy="16" r="7" fill="lime"/><circle cx="46" cy="286" r="7" fill="red"/></svg>